<?xml version="1.0" encoding="utf-8"?>
<!-- Generator: Adobe Illustrator 18.0.0, SVG Export Plug-In . SVG Version: 6.00 Build 0)  -->
<!DOCTYPE svg PUBLIC "-//W3C//DTD SVG 1.1//EN" "http://www.w3.org/Graphics/SVG/1.1/DTD/svg11.dtd">
<svg version="1.1" id="Layer_1" xmlns="http://www.w3.org/2000/svg" xmlns:xlink="http://www.w3.org/1999/xlink" x="0px" y="0px"
	 viewBox="0 0 689.1 93" enable-background="new 0 0 689.1 93" xml:space="preserve">
<g>
	<path fill="#E7E7E7" d="M131.2,66.5c0.3,0.4,0.5,0.7,0.5,1.1c0,1.3-5.8,6.2-13,6.2c-13.8,0-18.7-12.7-18.7-29.5
		C100,29,104,16,118.1,16c7.1,0,13,5,13,6.2c0,0.4-0.2,0.7-0.5,1.1l-1.7,2.2c-0.2,0.3-0.5,0.6-0.8,0.6c-0.6,0-5.1-4.8-9.8-4.8
		c-8.8,0-11,8.4-11,22.2c0,15,3.2,24.8,11.5,24.8c4.7,0,9.3-4.8,9.8-4.8c0.2,0,0.6,0.4,0.8,0.6L131.2,66.5z"/>
	<path fill="#E7E7E7" d="M154.6,73.9c-11,0-15.7-8.8-15.7-20.5c0-11.2,4.7-20.8,16.5-20.8c11.1,0,15.8,8.9,15.8,20.4
		C171.3,64.4,166.5,73.9,154.6,73.9z M164.6,52.9c0-8-2.2-15.3-9.5-15.3c-7.3,0-9.5,7-9.5,15c0,9.3,2.1,16.2,9.6,16.2
		C162.4,68.9,164.6,62.3,164.6,52.9z"/>
	<path fill="#E7E7E7" d="M183.9,43.9c0-1.9-0.1-3.8-0.5-5.7c-0.4-1.9-1.1-2.4-1.1-2.8c0-0.2,0.1-0.3,0.4-0.6l3.5-1.9
		c0.2-0.1,0.5-0.3,0.7-0.3c1.2,0,2.1,4.2,2.2,4.8c2.1-1.9,7.1-4.8,10.6-4.8c5.3,0,7.5,1.6,8.6,4.9c2.4-1.8,6.8-4.9,10.7-4.9
		c9,0,9.7,6.3,9.7,12.2v26.9c0,0.6-0.3,1-1,1h-4.2c-0.6,0-1-0.3-1-1V44.7c0-3.5-0.9-6.6-5.2-6.6c-3.9,0-6.3,2.2-8,3.3v30.4
		c0,0.6-0.3,1-1,1h-4.2c-0.6,0-1-0.3-1-1V44.7c0-3.5-0.9-6.6-5.3-6.6c-3.7,0-6.5,2.3-7.9,3.4v30.3c0,0.6-0.3,1-1,1h-4.2
		c-0.6,0-1-0.3-1-1V43.9z"/>
	<path fill="#E7E7E7" d="M252.4,71.8c0,0.6-0.3,1-1,1h-4.2c-0.6,0-1-0.3-1-1v-33h-6.3c-0.6,0-1-0.3-1-1v-3.1c0-0.6,0.3-1,1-1h11.4
		c0.9,0,1.1,0.5,1.1,1.2V71.8z M248.9,24.5c-2.8,0-5-2.2-5-5c0-2.8,2.2-5,5-5c2.8,0,5,2.3,5,5C253.8,22.2,251.6,24.5,248.9,24.5z"/>
	<path fill="#E7E7E7" d="M296.3,71.8c0,0.6-0.3,1-1,1h-4.2c-0.6,0-1-0.3-1-1V44.7c0-3.5-0.9-6.6-5.3-6.6c-5.3,0-8.7,3.2-10.7,5v28.7
		c0,0.6-0.3,1-1,1H269c-0.6,0-1-0.3-1-1v-28c0-2.7,0-3.6-0.3-4.8c-0.6-2.4-1.3-3-1.3-3.4c0-0.2,0.1-0.3,0.4-0.6l3.7-2
		c0.2-0.1,0.4-0.3,0.6-0.3c1.5,0,2.4,4.9,2.5,5.5c2.7-2.1,6.9-5.5,13.1-5.5c9,0,9.7,6.3,9.7,12.2V71.8z"/>
	<path fill="#E7E7E7" d="M336.6,57.1c0,4.5,0.6,14,0.6,18.4c0,7.4-3.3,14.3-14.3,14.3c-6.1,0-13.6-2.8-13.6-4.3
		c0-0.4,0.1-0.6,0.3-1.1l1.3-2.8c0.1-0.2,0.2-0.5,0.6-0.5c0.6,0,5.5,3.2,11.1,3.2c7.5,0,8.4-4.4,8.4-8.8c0-4.1-0.2-7.4-0.2-8.4
		c-1.9,1.5-5.6,4.5-11,4.5c-7.4,0-12.5-6.5-12.5-17.9c0-12.7,5-21.1,15.3-21.1c5.4,0,8.5,2.7,9.6,3.5c0.7-2,1.6-3.5,2.4-3.5
		c0.3,0,0.6,0.1,0.7,0.2l3.7,2.3c0.3,0.2,0.3,0.3,0.3,0.5c0,0.6-0.7,1.1-1.5,3c-0.7,2-1.1,3.1-1.1,6V57.1z M330.4,40.3
		c-1.4-0.6-4.2-2.2-7.5-2.2c-6.2,0-9.1,5.4-9.1,14.1c0,8.6,1.5,14,7.1,14c4.2,0,7.6-2.8,9.5-4.1V40.3z"/>
	<path fill="#E7E7E7" d="M366.7,22.8v48.9c0,0.6-0.3,1-1,1H361c-0.6,0-1-0.3-1-1V22.8H348c-0.6,0-1-0.3-1-1v-3.7
		c0-0.6,0.2-1.1,1.1-1.1h31.8c0.6,0,1,0.2,1,0.6c0,0.3-0.2,0.6-0.3,1.1l-1.1,3.1c-0.2,0.6-0.7,0.9-1.3,0.9H366.7z"/>
	<path fill="#E7E7E7" d="M398,73.9c-11,0-15.7-8.8-15.7-20.5c0-11.2,4.7-20.8,16.5-20.8c11.1,0,15.8,8.9,15.8,20.4
		C414.6,64.4,409.8,73.9,398,73.9z M407.9,52.9c0-8-2.2-15.3-9.5-15.3c-7.3,0-9.5,7-9.5,15c0,9.3,2.1,16.2,9.6,16.2
		C405.7,68.9,407.9,62.3,407.9,52.9z"/>
	<path fill="#E7E7E7" d="M462.6,70.9c0.2,0.6,0.3,1,0.4,1.4c0,0.4-0.3,0.5-1.1,0.5h-5c-1,0-1.3-0.3-1.5-0.9l-4.5-15.7h-16.6
		l-4.1,15.7c-0.2,0.6-0.5,0.9-1.5,0.9h-5c-0.8,0-1.1-0.1-1.1-0.5c0.1-0.4,0.2-0.8,0.4-1.4L439.1,18c0.2-0.8,0.3-0.9,1.2-0.9h4.8
		c0.6,0,0.9,0,1.2,0.9L462.6,70.9z M444.5,32.6c-0.6-2.5-1.5-5.4-1.9-7.7h-0.2c-0.3,1.9-1.1,5.5-1.7,7.7l-5,17.9h13.6L444.5,32.6z"
		/>
	<path fill="#E7E7E7" d="M473.8,43.9c0-1.9-0.1-3.8-0.5-5.7c-0.4-1.9-1.1-2.4-1.1-2.8c0-0.2,0.1-0.3,0.4-0.6l3.5-1.9
		c0.2-0.1,0.5-0.3,0.7-0.3c1.2,0,2.1,4.2,2.2,4.8c2.1-1.9,7.1-4.8,10.6-4.8c5.3,0,7.5,1.6,8.6,4.9c2.4-1.8,6.8-4.9,10.7-4.9
		c9,0,9.7,6.3,9.7,12.2v26.9c0,0.6-0.3,1-1,1h-4.2c-0.6,0-1-0.3-1-1V44.7c0-3.5-0.9-6.6-5.2-6.6c-3.9,0-6.3,2.2-8,3.3v30.4
		c0,0.6-0.3,1-1,1H494c-0.6,0-1-0.3-1-1V44.7c0-3.5-0.9-6.6-5.3-6.6c-3.7,0-6.5,2.3-7.9,3.4v30.3c0,0.6-0.3,1-1,1h-4.2
		c-0.6,0-1-0.3-1-1V43.9z"/>
	<path fill="#E7E7E7" d="M558.5,69c0.1,0.2,0.2,0.4,0.2,0.6c0,0.9-6.8,4.2-12.8,4.2c-10.8-0.1-17.1-8.3-17.1-20.6
		c0-11.9,6-20.6,16.1-20.6c13.6,0,14.8,13.1,14.8,20.1c0,1.1,0,1.8-0.9,1.8h-23.3c0,5,1.9,13.9,11.2,13.9c5.3,0,9.5-3.3,10-3.3
		c0.2,0,0.3,0.2,0.5,0.5L558.5,69z M553,49.5c0-4.2-1.4-11.8-8.4-11.8c-7.5,0-9.1,7.8-9.1,11.8H553z"/>
	<path fill="#E7E7E7" d="M577.5,71.8c0,0.6-0.3,1-1,1h-4.2c-0.6,0-1-0.3-1-1V43.9c0-1.5-0.2-4.1-1.4-6.2c-0.6-1.1-0.9-1.8-0.9-2
		c0.1-0.5,0.4-0.7,0.6-0.8l3-1.9c0.3-0.2,0.6-0.4,0.8-0.4c1.5,0,2.8,5,3.2,6.8c2.1-2.3,5-6.8,9.7-6.8c1.9,0,4,0.6,4,1.4
		c0,0.2-0.2,0.4-0.2,0.6l-1.8,4.1c-0.1,0.2-0.2,0.6-0.5,0.6c-0.4,0-1.1-0.7-2.7-0.7c-2.8,0-5.7,4.2-7.6,6.3V71.8z"/>
	<path fill="#E7E7E7" d="M606.9,71.8c0,0.6-0.3,1-1,1h-4.2c-0.6,0-1-0.3-1-1v-33h-6.3c-0.6,0-1-0.3-1-1v-3.1c0-0.6,0.3-1,1-1h11.4
		c0.9,0,1.1,0.5,1.1,1.2V71.8z M603.4,24.5c-2.8,0-5-2.2-5-5c0-2.8,2.2-5,5-5s5,2.3,5,5C608.3,22.2,606.1,24.5,603.4,24.5z"/>
	<path fill="#E7E7E7" d="M646.3,69c0.1,0.2,0.2,0.4,0.2,0.6c0,0.9-6.8,4.2-12.8,4.2c-9.7,0-15.3-7.5-15.3-19.4
		c0-13.6,6.5-21.8,16.5-21.8c5.4,0,11.7,3.8,11.7,5c0,0.2-0.2,0.4-0.2,0.6l-1.9,3.4c-0.2,0.2-0.2,0.5-0.5,0.5
		c-0.3,0-3.8-4.1-8.6-4.1c-8,0-10.3,5.9-10.3,15.2c0,7.4,1.5,15.2,9.3,15.2c5.3,0,9.5-3.3,10-3.3c0.2,0,0.3,0.2,0.5,0.5L646.3,69z"
		/>
	<path fill="#E7E7E7" d="M681.2,59.9c0,5.1,0.2,5.8,1,8.1c0.3,1,1.5,2.5,1.5,3c0,0.3-0.4,0.5-0.7,0.6l-3.2,1.9
		c-0.3,0.2-0.5,0.2-0.6,0.2c-1.2,0-2.7-4.3-3.1-5.4c-1,0.9-5,5.4-11.7,5.4c-6.4,0-10.6-4.2-10.6-11.4c0-13.7,16.2-14,21.3-14.1v-2.9
		c0-4.7-1.5-7.3-7.2-7.3c-5.4,0-9.2,2.6-9.9,2.6c-0.2,0-0.5-0.2-0.6-0.4l-1.1-2.8c-0.2-0.4-0.2-0.6-0.2-1.1c0-1.4,7.5-3.7,12.7-3.7
		c9.3,0,12.5,4.5,12.5,11.4V59.9z M675,53.4c-3.6,0.1-15.2,0.1-15.2,8.6c0,3.2,1.8,6.9,5.9,6.9c4.2,0,8-3.9,9.3-5V53.4z"/>
</g>
<g id="Layer_2">
	<path fill="#FCDC00" d="M87.4,2.8c-0.1-0.8-0.3-1.5-0.8-2c0,0,0,0,0,0c0,0,0,0,0,0c-0.2-0.2-0.4-0.3-0.6-0.4c0,0,0,0,0,0
		c-0.2-0.1-0.4-0.2-0.7-0.3c0,0-0.1,0-0.1,0c-0.2,0-0.4-0.1-0.5-0.1c-0.1,0-0.2,0-0.3,0c-0.1,0-0.2,0-0.3,0c-0.2,0-0.4,0-0.6,0
		c0,0-0.1,0-0.1,0c-0.6,0.1-1.3,0.3-2.1,0.5c0,0,0,0,0,0c-0.4,0.1-0.8,0.3-1.2,0.5c-0.1,0.1-0.3,0.1-0.4,0.2
		c-0.3,0.1-0.5,0.2-0.8,0.4C68.4,6.8,52.4,22.4,52.4,22.4L6.9,21.2L0,29.6l31.8,14.1L18.3,60.5L3.6,60.8L0,65.3l11.1,6.4v5.6h5.3
		l5.9,10.2l4.5-3.6L27,69.2l16.8-13.5l14.1,31.8l8.4-6.9L65,35c0,0,15.6-15.9,20.8-26.4c0.1-0.2,0.2-0.5,0.3-0.7
		c0.1-0.2,0.2-0.3,0.2-0.5c0.2-0.4,0.3-0.7,0.4-1.1c0,0,0-0.1,0-0.1c0.1-0.4,0.2-0.7,0.3-1.1c0,0,0,0,0-0.1c0.1-0.3,0.1-0.6,0.2-0.9
		c0-0.1,0-0.1,0-0.2c0-0.2,0-0.4,0-0.6c0-0.1,0-0.3,0-0.4C87.5,3,87.4,2.9,87.4,2.8z"/>
</g>
</svg>
